<mxfile host="app.diagrams.net" modified="2022-09-21T03:02:15.109Z" agent="5.0 (Windows NT 10.0; Win64; x64) AppleWebKit/537.36 (KHTML, like Gecko) Chrome/105.0.0.0 Safari/537.36" etag="MqaU8-BKtNWHD8GEjb0d" version="20.3.3" type="github">
  <diagram id="wYmSVI4LknySVYLHYTh9" name="Halaman-1">
    <mxGraphModel dx="1332" dy="627" grid="0" gridSize="10" guides="1" tooltips="1" connect="1" arrows="1" fold="1" page="0" pageScale="1" pageWidth="827" pageHeight="1169" math="0" shadow="0">
      <root>
        <object label="" id="0">
          <mxCell />
        </object>
        <mxCell id="1" parent="0" />
      </root>
    </mxGraphModel>
  </diagram>
</mxfile>
